:SAMPLES-PER-SECOND 30
:FULLY-SPECIFIED
:DEGREES
241
root  -65.4329 29.6149 -40.6811 37.55 72.1062 22.2795
RightUpLeg  -34.515 -10.1058 -30.783
RightLeg  39.9945 -11.9947 -8.69829
RightFoot  -2.07154 0.0266461 1.85192
RightToes  -41.1837 -0.228008 -0.321711
Spine  11.5729 -2.49689 1.42071
Spine1  19.6883 -4.31324 0.829224
HEad  11.2953 3.10927 -1.67475
LeftShoulder1  0 -2.42657e-020 -4.95415e-022
LeftArm  -7.74231 -14.586 -88.1215
LeftForeArm  -140.394 -20.3824 -3.3494
LeftHand  8.93361 -23.6631 -41.2822
RightShoulder  0 2.42657e-020 1.07489e-018
RightArm  -42.6768 16.4036 81.6546
RightForeArm  17.7138 27.1972 5.19427
RightHand  0.963275 22.4127 5.23073
LeftUpLeg  -43.333 41.4555 1.2495
LeftLeg  42.6039 -5.38449 -4.33927
LeftFoot  4.343 0.0566518 -1.49399
LeftToes  -40.2523 1.18758e-006 1.19596e-007
242
root  -65.601 30.15 -39.0511 31.338 70.3001 15.198
RightUpLeg  -36.7493 -8.25465 -26.5227
RightLeg  39.4565 -7.27432 -5.23148
RightFoot  0.868997 -0.00389248 0.890109
RightToes  -44.4663 -0.255108 -0.338936
Spine  10.9294 -2.63024 2.20807
Spine1  19.0355 -4.875 2.14824
HEad  12.3782 6.35033 -4.64091
LeftShoulder1  0 -2.42657e-020 -4.95415e-022
LeftArm  -10.3255 -11.1414 -85.9083
LeftForeArm  -139.842 -21.9176 -3.65717
LeftHand  9.37026 -23.0124 -44.24
RightShoulder  0 2.42657e-020 1.07489e-018
RightArm  -38.1193 13.1582 81.2553
RightForeArm  16.0284 33.3845 6.67067
RightHand  1.21598 23.5207 6.20757
LeftUpLeg  -37.0758 38.0058 7.34217
LeftLeg  35.7395 -0.250321 -0.161369
LeftFoot  0.530552 0.00411155 -0.888026
LeftToes  -36.5947 1.18758e-006 1.19596e-007
243
root  -65.618 30.6438 -37.4553 27.4064 68.4822 11.3979
RightUpLeg  -37.1437 -8.54021 -22.6343
RightLeg  39.2717 -5.49279 -3.93825
RightFoot  0.637514 -0.00174072 0.689681
RightToes  -46.4744 -0.272158 -0.348699
Spine  10.2361 -3.43386 2.37698
Spine1  18.2744 -6.75043 2.67934
HEad  14.326 10.2453 -6.83331
LeftShoulder1  0 -2.42657e-020 -4.95415e-022
LeftArm  -13.3794 -7.01866 -83.1535
LeftForeArm  -141.005 -22.8585 -3.8473
LeftHand  9.63915 -22.6845 -45.9807
RightShoulder  0 2.42657e-020 1.07489e-018
RightArm  -32.3391 9.55046 81.6342
RightForeArm  12.6031 39.9334 8.49052
RightHand  1.61886 23.7666 8.05424
LeftUpLeg  -28.8967 28.3983 13.5876
LeftLeg  28.7209 7.07877 3.29124
LeftFoot  -5.48633 -0.0710465 -1.48272
LeftToes  -28.2898 1.18758e-006 1.19596e-007
244
root  -65.5207 31.0854 -35.9942 24.8479 66.7966 9.10439
RightUpLeg  -36.8191 -8.8895 -19.504
RightLeg  39.0221 -3.49096 -2.49237
RightFoot  -0.466673 0.000700868 0.550468
RightToes  -46.7352 -0.274396 -0.349922
Spine  9.42135 -4.5553 2.31069
Spine1  17.1023 -9.43143 3.29562
HEad  16.2102 13.7089 -8.73956
LeftShoulder1  0 -2.42657e-020 -4.95415e-022
LeftArm  -16.1179 -2.62665 -80.9377
LeftForeArm  -143.692 -23.378 -3.95136
LeftHand  9.85265 -23.1018 -46.1154
RightShoulder  0 2.42657e-020 1.07489e-018
RightArm  -27.3148 4.5794 82.15
RightForeArm  21.2567 50.0539 12.1833
RightHand  1.10597 24.1877 5.52969
LeftUpLeg  -22.7259 13.5569 17.5067
LeftLeg  24.0299 11.4554 4.20977
LeftFoot  -9.10687 -0.197366 -2.47785
LeftToes  -7.26365 1.18758e-006 1.19596e-007
245
root  -65.2166 31.4286 -34.6637 22.0775 64.0883 6.86971
RightUpLeg  -36.1295 -8.85222 -16.9752
RightLeg  38.7129 -0.977354 -0.705331
RightFoot  -1.35872 0.000494451 0.419463
RightToes  -47.8186 -0.283756 -0.350512
Spine  8.94084 -4.96587 2.36924
Spine1  16.4444 -10.3201 3.36696
HEad  18.3596 16.8282 -10.3324
LeftShoulder1  0 -2.42657e-020 -4.95415e-022
LeftArm  -19.3033 0.561002 -80.3942
LeftForeArm  -145.567 -22.9077 -3.8529
LeftHand  10.1178 -23.6994 -46.1327
RightShoulder  0 2.42657e-020 1.07489e-018
RightArm  -24.3599 -1.29179 81.3542
RightForeArm  27.0272 59.8655 17.7632
RightHand  0.479502 22.8711 2.7409
LeftUpLeg  -19.1353 0.880834 17.6758
LeftLeg  23.8179 6.4625 2.36036
LeftFoot  -5.89655 -0.0553622 -1.07492
LeftToes  -15.7706 1.18758e-006 1.19596e-007
246
root  -64.8838 31.8058 -33.4966 19.4604 60.6155 4.9151
RightUpLeg  -34.7256 -6.5015 -15.2352
RightLeg  37.3077 0.308394 0.186948
RightFoot  -1.6468 -0.00112455 0.29943
RightToes  -47.6121 -0.281965 -0.35094
Spine  8.92402 -4.94574 2.40699
Spine1  16.6377 -10.2042 3.20838
HEad  19.0617 19.0513 -11.684
LeftShoulder1  0 -2.42657e-020 -4.95415e-022
LeftArm  -22.036 2.16904 -80.5735
LeftForeArm  -146.06 -22.4506 -3.75908
LeftHand  10.388 -24.2861 -46.1863
RightShoulder  0 2.42657e-020 1.07489e-018
RightArm  -25.7883 -6.51794 80.89
RightForeArm  24.029 67.4016 25.2146
RightHand  1.00532 23.1178 5.284
LeftUpLeg  -17.3391 -5.72644 14.9247
LeftLeg  27.4965 3.19449 1.40555
LeftFoot  -8.31473 -0.0551134 -0.758223
LeftToes  -13.09 1.18758e-006 1.19596e-007
247
root  -64.5407 32.243 -32.4493 16.9038 56.3998 3.00053
RightUpLeg  -32.5206 -3.17012 -13.638
RightLeg  34.212 1.15458 0.667094
RightFoot  -1.19303 -0.00173062 0.211451
RightToes  -46.5041 -0.272413 -0.350514
Spine  9.12172 -4.70002 2.34412
Spine1  17.1831 -9.67122 2.96526
HEad  18.9663 21.2534 -12.9905
LeftShoulder1  0 -2.42657e-020 -4.95415e-022
LeftArm  -24.5042 3.30779 -81.0886
LeftForeArm  -146.636 -22.5253 -3.77384
LeftHand  10.4207 -24.4785 -45.9819
RightShoulder  0 2.42657e-020 1.07489e-018
RightArm  -25.7203 -10.599 80.2129
RightForeArm  33.6091 72.9801 35.4625
RightHand  0.801479 22.7023 4.36212
LeftUpLeg  -15.9003 -3.62943 11.298
LeftLeg  31.6434 8.26848 4.36173
LeftFoot  -8.27111 -0.112178 -1.55138
LeftToes  -9.72317 1.18758e-006 1.19596e-007
248
root  -64.2252 32.6551 -31.5133 15.0796 52.8204 1.68557
RightUpLeg  -29.8544 -1.38627 -12.1407
RightLeg  30.4999 2.95975 1.48599
RightFoot  -0.217152 -0.000400672 0.166646
RightToes  -46.4421 -0.271881 -0.348547
Spine  9.22838 -4.58551 2.18883
Spine1  17.5133 -9.39969 2.64357
HEad  19.2203 23.5702 -13.4421
LeftShoulder1  0 -2.42657e-020 -4.95415e-022
LeftArm  -25.7555 4.10397 -81.5576
LeftForeArm  -148.314 -22.6566 -3.79941
LeftHand  10.5989 -24.6951 -46.3089
RightShoulder  0 2.42657e-020 1.07489e-018
RightArm  -25.4587 -14.2618 79.9838
RightForeArm  44.088 77.0215 50.482
RightHand  0.919902 21.7842 5.14935
LeftUpLeg  -15.7241 2.54271 8.21093
LeftLeg  35.0819 9.41476 5.69768
LeftFoot  -6.40492 -0.0784163 -1.40144
LeftToes  -13.3121 1.18758e-006 1.19596e-007
249
root  -63.9292 32.9737 -30.6765 14.1616 50.6714 1.05767
RightUpLeg  -27.2791 -0.252701 -11.0256
RightLeg  27.3773 4.03222 1.76149
RightFoot  0.276624 -0.000556007 0.156815
RightToes  -45.2773 -0.261953 -0.342951
Spine  9.30383 -4.7082 2.05546
Spine1  17.7396 -9.60811 2.39598
HEad  19.4243 24.9186 -12.8726
LeftShoulder1  0 -2.42657e-020 -4.95415e-022
LeftArm  -26.067 4.52128 -81.823
LeftForeArm  -149.077 -23.4504 -3.96203
LeftHand  10.7146 -25.1572 -45.9712
RightShoulder  0 2.42657e-020 1.07489e-018
RightArm  -26.2325 -18.2099 80.1765
RightForeArm  71.5474 79.7969 81.6584
RightHand  0.845806 21.5645 4.81061
LeftUpLeg  -17.6197 5.37295 5.5913
LeftLeg  38.8753 6.65484 4.66733
LeftFoot  -7.28614 -0.0740423 -1.16289
LeftToes  -13.1072 1.18758e-006 1.19596e-007
250
root  -63.6534 33.1899 -29.9222 14.0251 50.1259 0.876877
RightUpLeg  -24.8024 0.0198522 -10.1462
RightLeg  24.5367 4.26321 1.61831
RightFoot  0.280107 0.000632127 0.129473
RightToes  -44.4209 -0.254727 -0.338709
Spine  9.24939 -5.01676 1.95332
Spine1  17.6586 -10.1976 2.24783
HEad  19.4505 25.2957 -11.7726
LeftShoulder1  0 -2.42657e-020 -4.95415e-022
LeftArm  -25.8073 4.49884 -81.8962
LeftForeArm  -149.827 -24.3162 -4.1417
LeftHand  10.6953 -24.9865 -46.1854
RightShoulder  0 2.42657e-020 1.07489e-018
RightArm  -27.7899 -22.5939 80.6608
RightForeArm  110.73 78.3129 120.335
RightHand  0.313641 22.2954 1.96209
LeftUpLeg  -20.7743 5.53605 3.55112
LeftLeg  41.4095 3.07601 2.3717
LeftFoot  -6.30692 -0.0291436 -0.528984
LeftToes  -18.27 1.18758e-006 1.19596e-007
251
root  -63.5336 33.3445 -29.2754 15.0258 49.6643 0.446463
RightUpLeg  -24.4115 0.392195 -9.17705
RightLeg  22.6339 4.17457 1.42931
RightFoot  0.307974 0.000727064 0.106783
RightToes  -43.395 -0.246156 -0.333486
Spine  8.75134 -5.13198 1.91517
Spine1  16.6968 -10.4148 2.36093
HEad  19.1387 25.4111 -10.8692
LeftShoulder1  0 -2.42657e-020 -4.95415e-022
LeftArm  -26.1374 4.63446 -82.0719
LeftForeArm  -150.113 -25.2944 -4.34807
LeftHand  10.5534 -24.696 -46.1298
RightShoulder  0 2.42657e-020 1.07489e-018
RightArm  -29.668 -26.3261 81.3412
RightForeArm  136.265 73.8637 141.762
RightHand  -0.57456 23.0058 -2.45343
LeftUpLeg  -25.5561 6.32217 2.53891
LeftLeg  42.5333 0.933303 0.745892
LeftFoot  -5.57663 -0.00996709 -0.204656
LeftToes  -21.9974 1.18758e-006 1.19596e-007
